<svg xmlns="http://www.w3.org/2000/svg" width="216" height="146"><path d="M168.861 37.966l-11.08-11.08c-1.52-1.521-3.368-2.281-5.54-2.281-2.173 0-4.021.76-5.541 2.281L93.254 80.414 69.301 56.379c-1.521-1.521-3.368-2.281-5.54-2.281-2.173 0-4.02.76-5.541 2.281l-11.08 11.08c-1.521 1.521-2.281 3.368-2.281 5.541 0 2.172.76 4.02 2.281 5.54l29.493 29.493 11.081 11.08c1.52 1.521 3.367 2.281 5.54 2.281 2.172 0 4.019-.761 5.54-2.281l11.081-11.08 58.986-58.986c1.52-1.521 2.281-3.368 2.281-5.541.001-2.172-.761-4.019-2.281-5.54z"/></svg>