<svg xmlns="http://www.w3.org/2000/svg" width="16" height="16"><path fill="#FFF" d="M10.832 11.072V7.808c0-.168-.012-.33-.035-.486a1.18 1.18 0 0 0-.133-.402c-.064-.112-.15-.202-.258-.27s-.25-.102-.426-.102a.855.855 0 0 0-.437.108c-.125.072-.229.168-.313.288s-.146.258-.185.414a1.9 1.9 0 0 0-.06.486v3.228h-1.97V7.664c0-.344-.068-.616-.203-.816-.137-.2-.352-.3-.648-.3-.312 0-.555.124-.726.372s-.258.552-.258.912v3.24H3.2V5.096h1.907v.828h.025c.072-.128.161-.252.27-.372.108-.12.238-.226.39-.318s.322-.166.51-.222c.188-.055.393-.084.617-.084.432 0 .8.089 1.098.264.3.176.535.428.703.756.2-.312.456-.56.768-.744.313-.183.692-.276 1.14-.276.407 0 .75.074 1.026.222s.498.34.666.576c.168.236.29.5.366.792.076.293.115.578.115.858v3.696h-1.969z"/></svg>